%TF.GenerationSoftware,KiCad,Pcbnew,9.0.0*%
%TF.CreationDate,2025-05-03T18:19:40+02:00*%
%TF.ProjectId,SV3x8-SimpleCart,53563378-382d-4536-996d-706c65436172,1*%
%TF.SameCoordinates,Original*%
%TF.FileFunction,Copper,L2,Bot*%
%TF.FilePolarity,Positive*%
%FSLAX46Y46*%
G04 Gerber Fmt 4.6, Leading zero omitted, Abs format (unit mm)*
G04 Created by KiCad (PCBNEW 9.0.0) date 2025-05-03 18:19:40*
%MOMM*%
%LPD*%
G01*
G04 APERTURE LIST*
G04 Aperture macros list*
%AMRoundRect*
0 Rectangle with rounded corners*
0 $1 Rounding radius*
0 $2 $3 $4 $5 $6 $7 $8 $9 X,Y pos of 4 corners*
0 Add a 4 corners polygon primitive as box body*
4,1,4,$2,$3,$4,$5,$6,$7,$8,$9,$2,$3,0*
0 Add four circle primitives for the rounded corners*
1,1,$1+$1,$2,$3*
1,1,$1+$1,$4,$5*
1,1,$1+$1,$6,$7*
1,1,$1+$1,$8,$9*
0 Add four rect primitives between the rounded corners*
20,1,$1+$1,$2,$3,$4,$5,0*
20,1,$1+$1,$4,$5,$6,$7,0*
20,1,$1+$1,$6,$7,$8,$9,0*
20,1,$1+$1,$8,$9,$2,$3,0*%
G04 Aperture macros list end*
%TA.AperFunction,ComponentPad*%
%ADD10C,1.400000*%
%TD*%
%TA.AperFunction,ComponentPad*%
%ADD11O,1.400000X1.400000*%
%TD*%
%TA.AperFunction,ComponentPad*%
%ADD12R,1.600000X1.600000*%
%TD*%
%TA.AperFunction,ComponentPad*%
%ADD13O,1.600000X1.600000*%
%TD*%
%TA.AperFunction,ConnectorPad*%
%ADD14R,1.500000X8.500000*%
%TD*%
%TA.AperFunction,ConnectorPad*%
%ADD15RoundRect,0.750000X-0.000010X-3.250000X0.000010X-3.250000X0.000010X3.250000X-0.000010X3.250000X0*%
%TD*%
%TA.AperFunction,ConnectorPad*%
%ADD16R,1.500000X9.000000*%
%TD*%
%TA.AperFunction,ComponentPad*%
%ADD17RoundRect,0.250000X-0.550000X-0.550000X0.550000X-0.550000X0.550000X0.550000X-0.550000X0.550000X0*%
%TD*%
%TA.AperFunction,ComponentPad*%
%ADD18C,1.600000*%
%TD*%
%TA.AperFunction,ComponentPad*%
%ADD19R,1.700000X1.700000*%
%TD*%
%TA.AperFunction,ComponentPad*%
%ADD20O,1.700000X1.700000*%
%TD*%
%TA.AperFunction,Conductor*%
%ADD21C,0.200000*%
%TD*%
G04 APERTURE END LIST*
D10*
%TO.P,R1,1*%
%TO.N,+5V*%
X152400000Y-109220000D03*
D11*
%TO.P,R1,2*%
%TO.N,CS*%
X152400000Y-101600000D03*
%TD*%
D12*
%TO.P,D2,1,K*%
%TO.N,CS2*%
X149860000Y-109220000D03*
D13*
%TO.P,D2,2,A*%
%TO.N,CS*%
X149860000Y-101600000D03*
%TD*%
D12*
%TO.P,D1,1,K*%
%TO.N,CS1*%
X147320000Y-109220000D03*
D13*
%TO.P,D1,2,A*%
%TO.N,CS*%
X147320000Y-101600000D03*
%TD*%
D14*
%TO.P,J1,1,Pin_1*%
%TO.N,+5V*%
X152400000Y-129500000D03*
D15*
%TO.P,J1,3,Pin_3*%
%TO.N,/A7*%
X149860000Y-130250000D03*
%TO.P,J1,5,Pin_5*%
%TO.N,/A6*%
X147320000Y-130250000D03*
%TO.P,J1,7,Pin_7*%
%TO.N,/A5*%
X144780000Y-130250000D03*
%TO.P,J1,9,Pin_9*%
%TO.N,/A4*%
X142240000Y-130250000D03*
%TO.P,J1,11,Pin_11*%
%TO.N,/A3*%
X139700000Y-130250000D03*
%TO.P,J1,13,Pin_13*%
%TO.N,/A10*%
X137160000Y-130250000D03*
%TO.P,J1,15,Pin_15*%
%TO.N,/A0*%
X134620000Y-130250000D03*
%TO.P,J1,17,Pin_17*%
%TO.N,/D0*%
X132080000Y-130250000D03*
%TO.P,J1,19,Pin_19*%
%TO.N,/D1*%
X129540000Y-130250000D03*
%TO.P,J1,21,Pin_21*%
%TO.N,/D2*%
X127000000Y-130250000D03*
%TO.P,J1,23,Pin_23*%
%TO.N,/D3*%
X124460000Y-130250000D03*
%TO.P,J1,25,Pin_25*%
%TO.N,CS3*%
X121920000Y-130250000D03*
%TO.P,J1,27,Pin_27*%
%TO.N,CS1*%
X119380000Y-130250000D03*
D16*
%TO.P,J1,29,Pin_29*%
%TO.N,GND*%
X116840000Y-129750000D03*
%TD*%
D17*
%TO.P,U1,1,VPP*%
%TO.N,+5V*%
X111760000Y-78740000D03*
D18*
%TO.P,U1,2,A12*%
%TO.N,/A12*%
X111760000Y-81280000D03*
%TO.P,U1,3,A7*%
%TO.N,/A7*%
X111760000Y-83820000D03*
%TO.P,U1,4,A6*%
%TO.N,/A6*%
X111760000Y-86360000D03*
%TO.P,U1,5,A5*%
%TO.N,/A5*%
X111760000Y-88900000D03*
%TO.P,U1,6,A4*%
%TO.N,/A4*%
X111760000Y-91440000D03*
%TO.P,U1,7,A3*%
%TO.N,/A3*%
X111760000Y-93980000D03*
%TO.P,U1,8,A2*%
%TO.N,/A2*%
X111760000Y-96520000D03*
%TO.P,U1,9,A1*%
%TO.N,/A1*%
X111760000Y-99060000D03*
%TO.P,U1,10,A0*%
%TO.N,/A0*%
X111760000Y-101600000D03*
%TO.P,U1,11,D0*%
%TO.N,/D0*%
X111760000Y-104140000D03*
%TO.P,U1,12,D1*%
%TO.N,/D1*%
X111760000Y-106680000D03*
%TO.P,U1,13,D2*%
%TO.N,/D2*%
X111760000Y-109220000D03*
%TO.P,U1,14,GND*%
%TO.N,GND*%
X111760000Y-111760000D03*
%TO.P,U1,15,D3*%
%TO.N,/D3*%
X127000000Y-111760000D03*
%TO.P,U1,16,D4*%
%TO.N,/D4*%
X127000000Y-109220000D03*
%TO.P,U1,17,D5*%
%TO.N,/D5*%
X127000000Y-106680000D03*
%TO.P,U1,18,D6*%
%TO.N,/D6*%
X127000000Y-104140000D03*
%TO.P,U1,19,D7*%
%TO.N,/D7*%
X127000000Y-101600000D03*
%TO.P,U1,20,~{CE}*%
%TO.N,CS*%
X127000000Y-99060000D03*
%TO.P,U1,21,A10*%
%TO.N,/A10*%
X127000000Y-96520000D03*
%TO.P,U1,22,~{OE}*%
%TO.N,CS*%
X127000000Y-93980000D03*
%TO.P,U1,23,A11*%
%TO.N,/A11*%
X127000000Y-91440000D03*
%TO.P,U1,24,A9*%
%TO.N,/A9*%
X127000000Y-88900000D03*
%TO.P,U1,25,A8*%
%TO.N,/A8*%
X127000000Y-86360000D03*
%TO.P,U1,26,A13*%
%TO.N,/A13*%
X127000000Y-83820000D03*
%TO.P,U1,27,A14*%
%TO.N,CS1*%
X127000000Y-81280000D03*
%TO.P,U1,28,VCC*%
%TO.N,+5V*%
X127000000Y-78740000D03*
%TD*%
%TO.P,C1,1*%
%TO.N,+5V*%
X109220000Y-109260000D03*
%TO.P,C1,2*%
%TO.N,GND*%
X109220000Y-111760000D03*
%TD*%
D19*
%TO.P,J2,1,Pin_1*%
%TO.N,+5V*%
X152400000Y-119380000D03*
D20*
%TO.P,J2,2,Pin_2*%
X152400000Y-121920000D03*
%TO.P,J2,3,Pin_3*%
%TO.N,/A7*%
X149860000Y-119380000D03*
%TO.P,J2,4,Pin_4*%
%TO.N,/A12*%
X149860000Y-121920000D03*
%TO.P,J2,5,Pin_5*%
%TO.N,/A6*%
X147320000Y-119380000D03*
%TO.P,J2,6,Pin_6*%
%TO.N,/A13*%
X147320000Y-121920000D03*
%TO.P,J2,7,Pin_7*%
%TO.N,/A5*%
X144780000Y-119380000D03*
%TO.P,J2,8,Pin_8*%
%TO.N,/A8*%
X144780000Y-121920000D03*
%TO.P,J2,9,Pin_9*%
%TO.N,/A4*%
X142240000Y-119380000D03*
%TO.P,J2,10,Pin_10*%
%TO.N,/A9*%
X142240000Y-121920000D03*
%TO.P,J2,11,Pin_11*%
%TO.N,/A3*%
X139700000Y-119380000D03*
%TO.P,J2,12,Pin_12*%
%TO.N,/A11*%
X139700000Y-121920000D03*
%TO.P,J2,13,Pin_13*%
%TO.N,/A10*%
X137160000Y-119380000D03*
%TO.P,J2,14,Pin_14*%
%TO.N,/A2*%
X137160000Y-121920000D03*
%TO.P,J2,15,Pin_15*%
%TO.N,/A0*%
X134620000Y-119380000D03*
%TO.P,J2,16,Pin_16*%
%TO.N,/A1*%
X134620000Y-121920000D03*
%TO.P,J2,17,Pin_17*%
%TO.N,/D0*%
X132080000Y-119380000D03*
%TO.P,J2,18,Pin_18*%
%TO.N,/D7*%
X132080000Y-121920000D03*
%TO.P,J2,19,Pin_19*%
%TO.N,/D1*%
X129540000Y-119380000D03*
%TO.P,J2,20,Pin_20*%
%TO.N,/D6*%
X129540000Y-121920000D03*
%TO.P,J2,21,Pin_21*%
%TO.N,/D2*%
X127000000Y-119380000D03*
%TO.P,J2,22,Pin_22*%
%TO.N,/D5*%
X127000000Y-121920000D03*
%TO.P,J2,23,Pin_23*%
%TO.N,/D3*%
X124460000Y-119380000D03*
%TO.P,J2,24,Pin_24*%
%TO.N,/D4*%
X124460000Y-121920000D03*
%TO.P,J2,25,Pin_25*%
%TO.N,CS3*%
X121920000Y-119380000D03*
%TO.P,J2,26,Pin_26*%
%TO.N,CS4*%
X121920000Y-121920000D03*
%TO.P,J2,27,Pin_27*%
%TO.N,CS1*%
X119380000Y-119380000D03*
%TO.P,J2,28,Pin_28*%
%TO.N,CS2*%
X119380000Y-121920000D03*
%TO.P,J2,29,Pin_29*%
%TO.N,GND*%
X116840000Y-119380000D03*
%TO.P,J2,30,Pin_30*%
X116840000Y-121920000D03*
%TD*%
D21*
%TO.N,GND*%
X116840000Y-125250000D02*
X116840000Y-119380000D01*
%TO.N,+5V*%
X152400000Y-121920000D02*
X152400000Y-125250000D01*
%TO.N,CS1*%
X146050000Y-115570000D02*
X147320000Y-114300000D01*
X124460000Y-83820000D02*
X124460000Y-106680000D01*
X119380000Y-125730000D02*
X118110000Y-124460000D01*
X147320000Y-109220000D02*
X146050000Y-107950000D01*
X121920000Y-115570000D02*
X146050000Y-115570000D01*
X146050000Y-107950000D02*
X125730000Y-107950000D01*
X119380000Y-127000000D02*
X119380000Y-125730000D01*
X119380000Y-118110000D02*
X121920000Y-115570000D01*
X125730000Y-107950000D02*
X124460000Y-106680000D01*
X127000000Y-81280000D02*
X124460000Y-83820000D01*
X118110000Y-124460000D02*
X118110000Y-120650000D01*
X147320000Y-114300000D02*
X147320000Y-109220000D01*
X119380000Y-119380000D02*
X119380000Y-118110000D01*
X118110000Y-120650000D02*
X119380000Y-119380000D01*
%TO.N,CS*%
X127000000Y-99060000D02*
X125899000Y-97959000D01*
X130810000Y-102870000D02*
X138430000Y-102870000D01*
X127000000Y-99060000D02*
X130810000Y-102870000D01*
X138430000Y-102870000D02*
X139700000Y-101600000D01*
X125899000Y-95081000D02*
X127000000Y-93980000D01*
X125899000Y-97959000D02*
X125899000Y-95081000D01*
X152400000Y-101600000D02*
X147320000Y-101600000D01*
X139700000Y-101600000D02*
X147320000Y-101600000D01*
%TO.N,CS2*%
X120650000Y-119737760D02*
X120650000Y-118110000D01*
X120650000Y-118110000D02*
X121920000Y-116840000D01*
X119380000Y-121007760D02*
X120650000Y-119737760D01*
X149860000Y-115570000D02*
X149860000Y-109220000D01*
X148590000Y-116840000D02*
X149860000Y-115570000D01*
X121920000Y-116840000D02*
X148590000Y-116840000D01*
X119380000Y-121920000D02*
X119380000Y-121007760D01*
%TO.N,/D0*%
X132080000Y-125730000D02*
X130810000Y-124460000D01*
X130810000Y-120650000D02*
X132080000Y-119380000D01*
X132080000Y-127000000D02*
X132080000Y-125730000D01*
X130810000Y-124460000D02*
X130810000Y-120650000D01*
%TO.N,/D1*%
X128270000Y-124460000D02*
X128270000Y-120650000D01*
X129540000Y-127000000D02*
X129540000Y-125730000D01*
X129540000Y-125730000D02*
X128270000Y-124460000D01*
X128270000Y-120650000D02*
X129540000Y-119380000D01*
%TO.N,/D2*%
X127000000Y-127000000D02*
X127000000Y-125730000D01*
X125730000Y-124460000D02*
X125730000Y-120650000D01*
X127000000Y-125730000D02*
X125730000Y-124460000D01*
X125730000Y-120650000D02*
X127000000Y-119380000D01*
%TO.N,CS3*%
X120650000Y-124460000D02*
X120650000Y-120650000D01*
X121920000Y-127000000D02*
X121920000Y-125730000D01*
X121920000Y-125730000D02*
X120650000Y-124460000D01*
X120650000Y-120650000D02*
X121920000Y-119380000D01*
%TO.N,/A0*%
X133350000Y-120650000D02*
X134620000Y-119380000D01*
X133350000Y-124460000D02*
X133350000Y-120650000D01*
X134620000Y-127000000D02*
X134620000Y-125730000D01*
X134620000Y-125730000D02*
X133350000Y-124460000D01*
%TO.N,/A5*%
X144780000Y-127000000D02*
X144780000Y-125730000D01*
X143510000Y-124460000D02*
X143510000Y-120650000D01*
X144780000Y-125730000D02*
X143510000Y-124460000D01*
X143510000Y-120650000D02*
X144780000Y-119380000D01*
%TO.N,/A7*%
X149860000Y-127000000D02*
X149860000Y-125730000D01*
X148590000Y-124460000D02*
X148590000Y-120650000D01*
X149860000Y-125730000D02*
X148590000Y-124460000D01*
X148590000Y-120650000D02*
X149860000Y-119380000D01*
%TO.N,/A6*%
X146049650Y-124486798D02*
X146049650Y-120676798D01*
X146049650Y-120676798D02*
X147319650Y-119406798D01*
X147319650Y-125756798D02*
X146049650Y-124486798D01*
X147319650Y-127026798D02*
X147319650Y-125756798D01*
%TO.N,/A4*%
X142240000Y-125730000D02*
X140970000Y-124460000D01*
X140970000Y-120650000D02*
X142240000Y-119380000D01*
X142240000Y-127000000D02*
X142240000Y-125730000D01*
X140970000Y-124460000D02*
X140970000Y-120650000D01*
%TO.N,/A10*%
X137160000Y-127000000D02*
X137160000Y-125730000D01*
X135890000Y-124460000D02*
X135890000Y-120650000D01*
X137160000Y-125730000D02*
X135890000Y-124460000D01*
X135890000Y-120650000D02*
X137160000Y-119380000D01*
%TO.N,/D3*%
X123190000Y-124460000D02*
X123190000Y-120650000D01*
X124460000Y-127000000D02*
X124460000Y-125730000D01*
X124460000Y-125730000D02*
X123190000Y-124460000D01*
X123190000Y-120650000D02*
X124460000Y-119380000D01*
%TO.N,/A3*%
X138430000Y-120650000D02*
X139700000Y-119380000D01*
X139700000Y-127000000D02*
X139700000Y-125730000D01*
X139700000Y-125730000D02*
X138430000Y-124460000D01*
X138430000Y-124460000D02*
X138430000Y-120650000D01*
%TD*%
M02*
