%TF.GenerationSoftware,KiCad,Pcbnew,9.0.0*%
%TF.CreationDate,2025-05-03T18:19:40+02:00*%
%TF.ProjectId,SV3x8-SimpleCart,53563378-382d-4536-996d-706c65436172,1*%
%TF.SameCoordinates,Original*%
%TF.FileFunction,Profile,NP*%
%FSLAX46Y46*%
G04 Gerber Fmt 4.6, Leading zero omitted, Abs format (unit mm)*
G04 Created by KiCad (PCBNEW 9.0.0) date 2025-05-03 18:19:40*
%MOMM*%
%LPD*%
G01*
G04 APERTURE LIST*
%TA.AperFunction,Profile*%
%ADD10C,0.200000*%
%TD*%
G04 APERTURE END LIST*
D10*
X106620000Y-100000000D02*
X106620000Y-114300000D01*
X162620000Y-73800000D02*
X106620000Y-73800000D01*
X114620000Y-114300000D02*
X114620000Y-134549999D01*
X161420000Y-100000000D02*
X162620000Y-100000000D01*
X106620000Y-114300000D02*
X114620000Y-114300000D01*
X115870002Y-135800000D02*
X153369999Y-135800000D01*
X162620000Y-100000000D02*
X162620000Y-114300000D01*
X161420000Y-97500000D02*
X161420000Y-100000000D01*
X154620000Y-114300000D02*
X162620000Y-114300000D01*
X106620000Y-96000000D02*
X107820000Y-96000000D01*
X154620000Y-134549998D02*
X154620000Y-114300000D01*
X162620000Y-73800000D02*
X162620000Y-97500000D01*
X137870000Y-98800000D02*
G75*
G02*
X131370000Y-98800000I-3250000J0D01*
G01*
X131370000Y-98800000D02*
G75*
G02*
X137870000Y-98800000I3250000J0D01*
G01*
X106620000Y-73800000D02*
X106620000Y-96000000D01*
X154620000Y-134549998D02*
G75*
G02*
X153369999Y-135800000I-1250000J-2D01*
G01*
X107820000Y-96000000D02*
X107820000Y-100000000D01*
X162620000Y-97500000D02*
X161420000Y-97500000D01*
X115870002Y-135800000D02*
G75*
G02*
X114620000Y-134549999I-2J1250000D01*
G01*
X107820000Y-100000000D02*
X106620000Y-100000000D01*
M02*
