%TF.GenerationSoftware,KiCad,Pcbnew,9.0.0*%
%TF.CreationDate,2025-05-03T18:19:40+02:00*%
%TF.ProjectId,SV3x8-SimpleCart,53563378-382d-4536-996d-706c65436172,1*%
%TF.SameCoordinates,Original*%
%TF.FileFunction,Copper,L1,Top*%
%TF.FilePolarity,Positive*%
%FSLAX46Y46*%
G04 Gerber Fmt 4.6, Leading zero omitted, Abs format (unit mm)*
G04 Created by KiCad (PCBNEW 9.0.0) date 2025-05-03 18:19:40*
%MOMM*%
%LPD*%
G01*
G04 APERTURE LIST*
G04 Aperture macros list*
%AMRoundRect*
0 Rectangle with rounded corners*
0 $1 Rounding radius*
0 $2 $3 $4 $5 $6 $7 $8 $9 X,Y pos of 4 corners*
0 Add a 4 corners polygon primitive as box body*
4,1,4,$2,$3,$4,$5,$6,$7,$8,$9,$2,$3,0*
0 Add four circle primitives for the rounded corners*
1,1,$1+$1,$2,$3*
1,1,$1+$1,$4,$5*
1,1,$1+$1,$6,$7*
1,1,$1+$1,$8,$9*
0 Add four rect primitives between the rounded corners*
20,1,$1+$1,$2,$3,$4,$5,0*
20,1,$1+$1,$4,$5,$6,$7,0*
20,1,$1+$1,$6,$7,$8,$9,0*
20,1,$1+$1,$8,$9,$2,$3,0*%
G04 Aperture macros list end*
%TA.AperFunction,ComponentPad*%
%ADD10C,1.400000*%
%TD*%
%TA.AperFunction,ComponentPad*%
%ADD11O,1.400000X1.400000*%
%TD*%
%TA.AperFunction,ComponentPad*%
%ADD12R,1.600000X1.600000*%
%TD*%
%TA.AperFunction,ComponentPad*%
%ADD13O,1.600000X1.600000*%
%TD*%
%TA.AperFunction,ConnectorPad*%
%ADD14R,1.500000X8.500000*%
%TD*%
%TA.AperFunction,ConnectorPad*%
%ADD15RoundRect,0.750000X-0.000010X-3.250000X0.000010X-3.250000X0.000010X3.250000X-0.000010X3.250000X0*%
%TD*%
%TA.AperFunction,ConnectorPad*%
%ADD16R,1.500000X9.000000*%
%TD*%
%TA.AperFunction,ComponentPad*%
%ADD17RoundRect,0.250000X-0.550000X-0.550000X0.550000X-0.550000X0.550000X0.550000X-0.550000X0.550000X0*%
%TD*%
%TA.AperFunction,ComponentPad*%
%ADD18C,1.600000*%
%TD*%
%TA.AperFunction,ComponentPad*%
%ADD19R,1.700000X1.700000*%
%TD*%
%TA.AperFunction,ComponentPad*%
%ADD20O,1.700000X1.700000*%
%TD*%
%TA.AperFunction,Conductor*%
%ADD21C,0.200000*%
%TD*%
G04 APERTURE END LIST*
D10*
%TO.P,R1,1*%
%TO.N,+5V*%
X152400000Y-109220000D03*
D11*
%TO.P,R1,2*%
%TO.N,CS*%
X152400000Y-101600000D03*
%TD*%
D12*
%TO.P,D2,1,K*%
%TO.N,CS2*%
X149860000Y-109220000D03*
D13*
%TO.P,D2,2,A*%
%TO.N,CS*%
X149860000Y-101600000D03*
%TD*%
D12*
%TO.P,D1,1,K*%
%TO.N,CS1*%
X147320000Y-109220000D03*
D13*
%TO.P,D1,2,A*%
%TO.N,CS*%
X147320000Y-101600000D03*
%TD*%
D14*
%TO.P,J1,2,Pin_2*%
%TO.N,+5V*%
X152400000Y-129500000D03*
D15*
%TO.P,J1,4,Pin_4*%
%TO.N,/A12*%
X149860000Y-130250000D03*
%TO.P,J1,6,Pin_6*%
%TO.N,/A13*%
X147320000Y-130250000D03*
%TO.P,J1,8,Pin_8*%
%TO.N,/A8*%
X144780000Y-130250000D03*
%TO.P,J1,10,Pin_10*%
%TO.N,/A9*%
X142240000Y-130250000D03*
%TO.P,J1,12,Pin_12*%
%TO.N,/A11*%
X139700000Y-130250000D03*
%TO.P,J1,14,Pin_14*%
%TO.N,/A2*%
X137160000Y-130250000D03*
%TO.P,J1,16,Pin_16*%
%TO.N,/A1*%
X134620000Y-130250000D03*
%TO.P,J1,18,Pin_18*%
%TO.N,/D7*%
X132080000Y-130250000D03*
%TO.P,J1,20,Pin_20*%
%TO.N,/D6*%
X129540000Y-130250000D03*
%TO.P,J1,22,Pin_22*%
%TO.N,/D5*%
X127000000Y-130250000D03*
%TO.P,J1,24,Pin_24*%
%TO.N,/D4*%
X124460000Y-130250000D03*
%TO.P,J1,26,Pin_26*%
%TO.N,CS4*%
X121920000Y-130250000D03*
%TO.P,J1,28,Pin_28*%
%TO.N,CS2*%
X119380000Y-130250000D03*
D16*
%TO.P,J1,30,Pin_30*%
%TO.N,GND*%
X116840000Y-129750000D03*
%TD*%
D17*
%TO.P,U1,1,VPP*%
%TO.N,+5V*%
X111760000Y-78740000D03*
D18*
%TO.P,U1,2,A12*%
%TO.N,/A12*%
X111760000Y-81280000D03*
%TO.P,U1,3,A7*%
%TO.N,/A7*%
X111760000Y-83820000D03*
%TO.P,U1,4,A6*%
%TO.N,/A6*%
X111760000Y-86360000D03*
%TO.P,U1,5,A5*%
%TO.N,/A5*%
X111760000Y-88900000D03*
%TO.P,U1,6,A4*%
%TO.N,/A4*%
X111760000Y-91440000D03*
%TO.P,U1,7,A3*%
%TO.N,/A3*%
X111760000Y-93980000D03*
%TO.P,U1,8,A2*%
%TO.N,/A2*%
X111760000Y-96520000D03*
%TO.P,U1,9,A1*%
%TO.N,/A1*%
X111760000Y-99060000D03*
%TO.P,U1,10,A0*%
%TO.N,/A0*%
X111760000Y-101600000D03*
%TO.P,U1,11,D0*%
%TO.N,/D0*%
X111760000Y-104140000D03*
%TO.P,U1,12,D1*%
%TO.N,/D1*%
X111760000Y-106680000D03*
%TO.P,U1,13,D2*%
%TO.N,/D2*%
X111760000Y-109220000D03*
%TO.P,U1,14,GND*%
%TO.N,GND*%
X111760000Y-111760000D03*
%TO.P,U1,15,D3*%
%TO.N,/D3*%
X127000000Y-111760000D03*
%TO.P,U1,16,D4*%
%TO.N,/D4*%
X127000000Y-109220000D03*
%TO.P,U1,17,D5*%
%TO.N,/D5*%
X127000000Y-106680000D03*
%TO.P,U1,18,D6*%
%TO.N,/D6*%
X127000000Y-104140000D03*
%TO.P,U1,19,D7*%
%TO.N,/D7*%
X127000000Y-101600000D03*
%TO.P,U1,20,~{CE}*%
%TO.N,CS*%
X127000000Y-99060000D03*
%TO.P,U1,21,A10*%
%TO.N,/A10*%
X127000000Y-96520000D03*
%TO.P,U1,22,~{OE}*%
%TO.N,CS*%
X127000000Y-93980000D03*
%TO.P,U1,23,A11*%
%TO.N,/A11*%
X127000000Y-91440000D03*
%TO.P,U1,24,A9*%
%TO.N,/A9*%
X127000000Y-88900000D03*
%TO.P,U1,25,A8*%
%TO.N,/A8*%
X127000000Y-86360000D03*
%TO.P,U1,26,A13*%
%TO.N,/A13*%
X127000000Y-83820000D03*
%TO.P,U1,27,A14*%
%TO.N,CS1*%
X127000000Y-81280000D03*
%TO.P,U1,28,VCC*%
%TO.N,+5V*%
X127000000Y-78740000D03*
%TD*%
%TO.P,C1,1*%
%TO.N,+5V*%
X109220000Y-109260000D03*
%TO.P,C1,2*%
%TO.N,GND*%
X109220000Y-111760000D03*
%TD*%
D19*
%TO.P,J2,1,Pin_1*%
%TO.N,+5V*%
X152400000Y-119380000D03*
D20*
%TO.P,J2,2,Pin_2*%
X152400000Y-121920000D03*
%TO.P,J2,3,Pin_3*%
%TO.N,/A7*%
X149860000Y-119380000D03*
%TO.P,J2,4,Pin_4*%
%TO.N,/A12*%
X149860000Y-121920000D03*
%TO.P,J2,5,Pin_5*%
%TO.N,/A6*%
X147320000Y-119380000D03*
%TO.P,J2,6,Pin_6*%
%TO.N,/A13*%
X147320000Y-121920000D03*
%TO.P,J2,7,Pin_7*%
%TO.N,/A5*%
X144780000Y-119380000D03*
%TO.P,J2,8,Pin_8*%
%TO.N,/A8*%
X144780000Y-121920000D03*
%TO.P,J2,9,Pin_9*%
%TO.N,/A4*%
X142240000Y-119380000D03*
%TO.P,J2,10,Pin_10*%
%TO.N,/A9*%
X142240000Y-121920000D03*
%TO.P,J2,11,Pin_11*%
%TO.N,/A3*%
X139700000Y-119380000D03*
%TO.P,J2,12,Pin_12*%
%TO.N,/A11*%
X139700000Y-121920000D03*
%TO.P,J2,13,Pin_13*%
%TO.N,/A10*%
X137160000Y-119380000D03*
%TO.P,J2,14,Pin_14*%
%TO.N,/A2*%
X137160000Y-121920000D03*
%TO.P,J2,15,Pin_15*%
%TO.N,/A0*%
X134620000Y-119380000D03*
%TO.P,J2,16,Pin_16*%
%TO.N,/A1*%
X134620000Y-121920000D03*
%TO.P,J2,17,Pin_17*%
%TO.N,/D0*%
X132080000Y-119380000D03*
%TO.P,J2,18,Pin_18*%
%TO.N,/D7*%
X132080000Y-121920000D03*
%TO.P,J2,19,Pin_19*%
%TO.N,/D1*%
X129540000Y-119380000D03*
%TO.P,J2,20,Pin_20*%
%TO.N,/D6*%
X129540000Y-121920000D03*
%TO.P,J2,21,Pin_21*%
%TO.N,/D2*%
X127000000Y-119380000D03*
%TO.P,J2,22,Pin_22*%
%TO.N,/D5*%
X127000000Y-121920000D03*
%TO.P,J2,23,Pin_23*%
%TO.N,/D3*%
X124460000Y-119380000D03*
%TO.P,J2,24,Pin_24*%
%TO.N,/D4*%
X124460000Y-121920000D03*
%TO.P,J2,25,Pin_25*%
%TO.N,CS3*%
X121920000Y-119380000D03*
%TO.P,J2,26,Pin_26*%
%TO.N,CS4*%
X121920000Y-121920000D03*
%TO.P,J2,27,Pin_27*%
%TO.N,CS1*%
X119380000Y-119380000D03*
%TO.P,J2,28,Pin_28*%
%TO.N,CS2*%
X119380000Y-121920000D03*
%TO.P,J2,29,Pin_29*%
%TO.N,GND*%
X116840000Y-119380000D03*
%TO.P,J2,30,Pin_30*%
X116840000Y-121920000D03*
%TD*%
D21*
%TO.N,GND*%
X115570000Y-111760000D02*
X116840000Y-113030000D01*
X116840000Y-113030000D02*
X116840000Y-119380000D01*
X116840000Y-125250000D02*
X116840000Y-119380000D01*
X109220000Y-111760000D02*
X111760000Y-111760000D01*
X111760000Y-111760000D02*
X115570000Y-111760000D01*
%TO.N,+5V*%
X109220000Y-81280000D02*
X111760000Y-78740000D01*
X142875000Y-108458000D02*
X144907000Y-110490000D01*
X111760000Y-78740000D02*
X127000000Y-78740000D01*
X152400000Y-119380000D02*
X152400000Y-109220000D01*
X109220000Y-109260000D02*
X109220000Y-81280000D01*
X152400000Y-125250000D02*
X152400000Y-119380000D01*
X142875000Y-94615000D02*
X142875000Y-108458000D01*
X127000000Y-78740000D02*
X142875000Y-94615000D01*
X144907000Y-110490000D02*
X151130000Y-110490000D01*
X151130000Y-110490000D02*
X152400000Y-109220000D01*
%TO.N,CS2*%
X119380000Y-127000000D02*
X119380000Y-121920000D01*
%TO.N,/D7*%
X130880000Y-115513000D02*
X130880000Y-105480000D01*
X133350000Y-117983000D02*
X130880000Y-115513000D01*
X132080000Y-121920000D02*
X133350000Y-120650000D01*
X132080000Y-127000000D02*
X132080000Y-121920000D01*
X133350000Y-120650000D02*
X133350000Y-117983000D01*
X130880000Y-105480000D02*
X127000000Y-101600000D01*
%TO.N,/D0*%
X132080000Y-118177919D02*
X130480000Y-116577919D01*
X127287050Y-102870000D02*
X113030000Y-102870000D01*
X130480000Y-106062950D02*
X127287050Y-102870000D01*
X113030000Y-102870000D02*
X111760000Y-104140000D01*
X130480000Y-116577919D02*
X130480000Y-106062950D01*
X132080000Y-119380000D02*
X132080000Y-118177919D01*
%TO.N,/D1*%
X113030000Y-105410000D02*
X111760000Y-106680000D01*
X129680000Y-119240000D02*
X129680000Y-107802950D01*
X129680000Y-107802950D02*
X127287050Y-105410000D01*
X127287050Y-105410000D02*
X113030000Y-105410000D01*
%TO.N,/D2*%
X127287050Y-107950000D02*
X113030000Y-107950000D01*
X127000000Y-119380000D02*
X127000000Y-117602000D01*
X128880000Y-109542950D02*
X127287050Y-107950000D01*
X128880000Y-115722000D02*
X128880000Y-109542950D01*
X113030000Y-107950000D02*
X111760000Y-109220000D01*
X127000000Y-117602000D02*
X128880000Y-115722000D01*
%TO.N,/A9*%
X132749884Y-88900000D02*
X127000000Y-88900000D01*
X142240000Y-121920000D02*
X143491000Y-120669000D01*
X143491000Y-113033801D02*
X140071000Y-109613801D01*
X142240000Y-127000000D02*
X142240000Y-121920000D01*
X140071000Y-96221116D02*
X132749884Y-88900000D01*
X140071000Y-109613801D02*
X140071000Y-96221116D01*
X143491000Y-120669000D02*
X143491000Y-113033801D01*
%TO.N,/A8*%
X144780000Y-127000000D02*
X144780000Y-121920000D01*
X146050000Y-120650000D02*
X146050000Y-114450256D01*
X140872000Y-95890744D02*
X131341256Y-86360000D01*
X131341256Y-86360000D02*
X127000000Y-86360000D01*
X144780000Y-121920000D02*
X146050000Y-120650000D01*
X140871999Y-109283429D02*
X140872000Y-95890744D01*
X144078570Y-112490000D02*
X140871999Y-109283429D01*
X146050000Y-114450256D02*
X144089744Y-112490000D01*
X144089744Y-112490000D02*
X144078570Y-112490000D01*
%TO.N,/D4*%
X125730000Y-117602000D02*
X128480000Y-114852000D01*
X128480000Y-110700000D02*
X127000000Y-109220000D01*
X124460000Y-127000000D02*
X124460000Y-121920000D01*
X128480000Y-114852000D02*
X128480000Y-110700000D01*
X124460000Y-121920000D02*
X125730000Y-120650000D01*
X125730000Y-120650000D02*
X125730000Y-117602000D01*
%TO.N,/A11*%
X139700000Y-121920000D02*
X140989000Y-120631000D01*
X140989000Y-111663167D02*
X139271000Y-109945167D01*
X139700000Y-127000000D02*
X139700000Y-121920000D01*
X139271000Y-96552488D02*
X134158512Y-91440000D01*
X139271000Y-109945167D02*
X139271000Y-96552488D01*
X140989000Y-120631000D02*
X140989000Y-111663167D01*
X134158512Y-91440000D02*
X127000000Y-91440000D01*
%TO.N,/D6*%
X130080000Y-107220000D02*
X127000000Y-104140000D01*
X129540000Y-127000000D02*
X129540000Y-121920000D01*
X130791000Y-120669000D02*
X130791000Y-117454605D01*
X130080000Y-116743604D02*
X130080000Y-107220000D01*
X129540000Y-121920000D02*
X130791000Y-120669000D01*
X130791000Y-117454605D02*
X130080000Y-116743604D01*
%TO.N,/A0*%
X134620000Y-118110000D02*
X131280000Y-114770000D01*
X131280000Y-104344370D02*
X130391000Y-103455370D01*
X130391000Y-103455370D02*
X130391000Y-103433950D01*
X134620000Y-119380000D02*
X134620000Y-118110000D01*
X127287050Y-100330000D02*
X113030000Y-100330000D01*
X131280000Y-114770000D02*
X131280000Y-104344370D01*
X130391000Y-103433950D02*
X127287050Y-100330000D01*
X113030000Y-100330000D02*
X111760000Y-101600000D01*
%TO.N,/A5*%
X113030000Y-87630000D02*
X111760000Y-88900000D01*
X144780000Y-119380000D02*
X144780000Y-113757115D01*
X140472000Y-96056430D02*
X132045570Y-87630000D01*
X144780000Y-113757115D02*
X140471999Y-109449114D01*
X132045570Y-87630000D02*
X113030000Y-87630000D01*
X140471999Y-109449114D02*
X140472000Y-96056430D01*
%TO.N,/A7*%
X113157000Y-82423000D02*
X111760000Y-83820000D01*
X144621686Y-111290000D02*
X144575628Y-111290000D01*
X149860000Y-119380000D02*
X149860000Y-116528314D01*
X142075000Y-95396686D02*
X129101314Y-82423000D01*
X129101314Y-82423000D02*
X113157000Y-82423000D01*
X142075000Y-108789370D02*
X142075000Y-95396686D01*
X149860000Y-116528314D02*
X144621686Y-111290000D01*
X144575628Y-111290000D02*
X142075000Y-108789370D01*
%TO.N,/A6*%
X147320000Y-115154570D02*
X144255430Y-112090000D01*
X113030000Y-85090000D02*
X111760000Y-86360000D01*
X130636942Y-85090000D02*
X113030000Y-85090000D01*
X147320000Y-119380000D02*
X147320000Y-115154570D01*
X144244256Y-112090000D02*
X141271999Y-109117743D01*
X141271999Y-109117743D02*
X141271999Y-95725057D01*
X144255430Y-112090000D02*
X144244256Y-112090000D01*
X141271999Y-95725057D02*
X130636942Y-85090000D01*
%TO.N,/A1*%
X131680000Y-114027000D02*
X131680000Y-103797686D01*
X127287050Y-97790000D02*
X113030000Y-97790000D01*
X128632000Y-100749685D02*
X128632000Y-99134950D01*
X113030000Y-97790000D02*
X111760000Y-99060000D01*
X131680000Y-103797686D02*
X128632000Y-100749685D01*
X134620000Y-121920000D02*
X135890000Y-120650000D01*
X128632000Y-99134950D02*
X127287050Y-97790000D01*
X135890000Y-120650000D02*
X135890000Y-118237000D01*
X135890000Y-118237000D02*
X131680000Y-114027000D01*
X134620000Y-127000000D02*
X134620000Y-121920000D01*
%TO.N,/A4*%
X139671000Y-96386802D02*
X133454198Y-90170000D01*
X113030000Y-90170000D02*
X111760000Y-91440000D01*
X142240000Y-119380000D02*
X142240000Y-112348484D01*
X139671000Y-109779484D02*
X139671000Y-96386802D01*
X142240000Y-112348484D02*
X139671000Y-109779484D01*
X133454198Y-90170000D02*
X113030000Y-90170000D01*
%TO.N,/A10*%
X129032000Y-100584000D02*
X129032000Y-98806000D01*
X129032000Y-98806000D02*
X127000000Y-96774000D01*
X132080000Y-113030000D02*
X132080000Y-103632000D01*
X137160000Y-118110000D02*
X132080000Y-113030000D01*
X132080000Y-103632000D02*
X129032000Y-100584000D01*
X137160000Y-119380000D02*
X137160000Y-118110000D01*
%TO.N,/D3*%
X124460000Y-117475000D02*
X127889000Y-114046000D01*
X124460000Y-119380000D02*
X124460000Y-117475000D01*
X127889000Y-114046000D02*
X127889000Y-112649000D01*
X127889000Y-112649000D02*
X127000000Y-111760000D01*
%TO.N,/A13*%
X144409942Y-111690000D02*
X141672000Y-108952058D01*
X141672000Y-95559372D02*
X129932628Y-83820000D01*
X129932628Y-83820000D02*
X127000000Y-83820000D01*
X141672000Y-108952058D02*
X141672000Y-95559372D01*
X147320000Y-127000000D02*
X147320000Y-121920000D01*
X144456001Y-111690000D02*
X144409942Y-111690000D01*
X148590000Y-120650000D02*
X148590000Y-115824000D01*
X147320000Y-121920000D02*
X148590000Y-120650000D01*
X148590000Y-115824000D02*
X144456001Y-111690000D01*
%TO.N,/A3*%
X139700000Y-110998000D02*
X138871000Y-110169000D01*
X139700000Y-119380000D02*
X139700000Y-110998000D01*
X138871000Y-96718174D02*
X134862826Y-92710000D01*
X134862826Y-92710000D02*
X113030000Y-92710000D01*
X138871000Y-110169000D02*
X138871000Y-96718174D01*
X113030000Y-92710000D02*
X111760000Y-93980000D01*
%TO.N,/A12*%
X151130000Y-120650000D02*
X151130000Y-117221000D01*
X144799000Y-110890000D02*
X144741314Y-110890000D01*
X112861000Y-80179000D02*
X111760000Y-81280000D01*
X142475000Y-108623685D02*
X142475000Y-95231000D01*
X128101000Y-80857000D02*
X128101000Y-80823950D01*
X149860000Y-121920000D02*
X151130000Y-120650000D01*
X151130000Y-117221000D02*
X144799000Y-110890000D01*
X142475000Y-95231000D02*
X128101000Y-80857000D01*
X144741314Y-110890000D02*
X142475000Y-108623685D01*
X149860000Y-127000000D02*
X149860000Y-121920000D01*
X128101000Y-80823950D02*
X127456050Y-80179000D01*
X127456050Y-80179000D02*
X112861000Y-80179000D01*
%TO.N,CS4*%
X121920000Y-127000000D02*
X121920000Y-121920000D01*
%TO.N,/D5*%
X128281755Y-120636600D02*
X128281755Y-117590245D01*
X128281755Y-117590245D02*
X129280000Y-116592000D01*
X127011755Y-126986600D02*
X127011755Y-121906600D01*
X129280000Y-108960000D02*
X127000000Y-106680000D01*
X127011755Y-121906600D02*
X128281755Y-120636600D01*
X129280000Y-116592000D02*
X129280000Y-108960000D01*
%TO.N,/A2*%
X113030000Y-95250000D02*
X111760000Y-96520000D01*
X138471000Y-120609000D02*
X138471000Y-96883860D01*
X129540000Y-93980000D02*
X128270000Y-95250000D01*
X135567140Y-93980000D02*
X129540000Y-93980000D01*
X138471000Y-96883860D02*
X135567140Y-93980000D01*
X137160000Y-121920000D02*
X138471000Y-120609000D01*
X137160000Y-127000000D02*
X137160000Y-121920000D01*
X128270000Y-95250000D02*
X113030000Y-95250000D01*
%TD*%
M02*
